# xmcd CD database file
#
# Track frame offsets:
#	150
#	17406
#	36419
#	57698
#
# Disc length: 985 seconds
#
# Revision: 0
# Processed by: cddbd v1.5.2PL0 Copyright (c) Steve Scherf et al.
# Submitted via: CD2WAV32(JP) R3.22
#
DISCID=3003d704
DTITLE=ガガガSP - 八月の出来事
DYEAR=2008
DGENRE=JPop
TTITLE0=八月の出来事
TTITLE1=夏のマボロシ
TTITLE2=アイラブフォークソング
TTITLE3=一瞬で
EXTD=
EXTT0=
EXTT1=
EXTT2=
EXTT3=
PLAYORDER=
